<svg width="57" height="63" viewBox="0 0 57 63" fill="none" xmlns="http://www.w3.org/2000/svg">
<path d="M28.5 0C37.7242 0 45.2019 8.19701 45.2019 18.3086C45.2019 28.4201 37.7242 36.6171 28.5 36.6171C19.2757 36.6171 11.798 28.4201 11.798 18.3086C11.8093 8.20199 19.2803 0.0123662 28.4989 0H28.5ZM28.5 31.1762C34.9829 31.1762 40.2384 25.4152 40.2384 18.3086C40.2384 11.2021 34.9829 5.44094 28.5 5.44094C22.017 5.44094 16.7615 11.202 16.7615 18.3086C16.7685 25.412 22.0198 31.1685 28.4993 31.1762H28.4999L28.5 31.1762ZM52.1159 63L51.1977 57.4177C49.1618 45.5409 39.7759 36.6745 28.5002 36.6716H28.4987C17.2331 36.6716 7.85277 45.5195 5.82488 57.2218L5.80215 57.3797L4.88648 62.9457L0 61.9717L0.918196 56.3948C3.40878 41.9828 14.8071 31.2307 28.4963 31.2307H28.5002H28.5001C42.2023 31.2346 53.6077 42.0104 56.0521 56.2529L56.0793 56.4438L57 62.0342L52.1159 63Z" fill="white"/>
</svg>
