<svg width="56" height="59" viewBox="0 0 56 59" fill="none" xmlns="http://www.w3.org/2000/svg">
<path d="M26.5847 12.554C32.3671 12.554 37.0546 17.5533 37.0546 23.7202C37.0546 29.8871 32.367 34.8864 26.5847 34.8864C20.8024 34.8864 16.1149 29.8872 16.1149 23.7202C16.1218 17.5562 20.8052 12.5613 26.5841 12.554H26.5847ZM26.5847 29.7407C29.7024 29.7407 32.2297 27.0453 32.2297 23.7203C32.2297 20.3953 29.7025 17.6997 26.5847 17.6997C23.4671 17.6997 20.9398 20.3951 20.9398 23.7201C20.9438 27.0434 23.4687 29.7363 26.5844 29.7407L26.5847 29.7407ZM37.5443 39.0545L30.5724 31.6112L33.9836 27.9731L40.9626 35.4088L37.5443 39.0545ZM11.6278 0.281433H43.8575C50.2766 0.288772 55.4785 5.83657 55.4854 12.6819V37.2278C55.4785 44.0737 50.2767 49.6216 43.8582 49.6289H35.6409L27.7427 58.0525L19.8446 49.6289H11.628C5.2088 49.6216 0.0068273 44.0738 0 37.2284V12.6826C0.00704404 5.83668 5.2088 0.28883 11.6272 0.281491H11.6279L11.6278 0.281433ZM43.8575 44.4832C47.6131 44.4788 50.6564 41.233 50.6605 37.2282V12.6827C50.6564 8.67736 47.6131 5.43158 43.8579 5.42719H11.6278C7.8722 5.43158 4.82891 8.67736 4.82484 12.6822V37.2278C4.82891 41.2331 7.8722 44.4788 11.6274 44.4832H21.8419L27.7427 50.7764L33.6434 44.4832L43.8575 44.4832Z" fill="white"/>
</svg>
